<svg version="1" xmlns="http://www.w3.org/2000/svg" width="346.667" height="346.667" viewBox="0 0 260.000000 260.000000"><path d="M109.3 25.6c-24.1 4.9-44.4 16.7-59.8 34.6-40.4 47-32.8 118 16.5 155.1 31.5 23.7 75.4 28 110.3 10.7 31.2-15.6 52.4-43.5 58.7-77.5 1.4-7.6 1.8-23.9.8-32-2.2-17.7-10.3-37.2-21.3-51.4-24.8-32.2-65.8-47.7-105.2-39.5zm45.2 11.8c5 1.5 12.8 4.5 17.5 6.9 6.9 3.4 8.4 4.6 8.2 6.2-.8 4.6-1.7 4.8-26.4 4.9l-23.3.1-9.3-4.5c-10.2-4.9-10.1-4.6-6.7-12.6 1.6-4 2.9-4.2 19-3.8 9.2.2 14.1.9 21 2.8zm-51.9 3.3c-1.8 7.7-2.3 8.2-16.6 15.3-8.3 4.2-15.9 7.3-19.5 7.9-3.2.6-6 .9-6.2.7-.6-.6 12.6-11.5 18.4-15.2 6-3.9 20.3-10.6 24.2-11.3.2-.1 0 1.1-.3 2.6zm84.3 44.2c7.7 10.4 14.1 19.2 14.1 19.5 0 .3-2.9 6.6-6.5 14l-6.5 13.3-11.8 2.8c-6.4 1.5-12.6 2.9-13.8 3.2-1.2.2-2.8-.2-3.6-1.1-3.5-3.5-33.3-38.8-33.3-39.5 0-.4 3.4-7.5 7.5-15.9l7.5-15.2h32.2l14.2 18.9zm-114.7 6l4.5 18-6.6 16.2-6.6 16.2-13.2 4.6c-7.2 2.5-13.4 4.3-13.7 4-.3-.2-1-3.8-1.7-7.9-1.5-10-.6-24.3 2.5-36.1 2.4-9.8 9.2-24.8 12.6-28.3 1.5-1.6 9.8-3.8 16.6-4.5.6-.1 3.1 7.8 5.6 17.8zm151.4 17.8c1.4 5.7 1.9 11.5 1.8 21.3-.1 14.8-1.4 21.7-6.4 34.8l-3 7.9-5.7-.1-5.7-.1-4.4-17.8-4.5-17.8 7.9-15.7c7-14 8.3-15.9 11.9-17.9 2.2-1.3 4.5-2.3 5.1-2.3.7 0 2 3.5 3 7.7zm-105.3.2c.7.1 7 6.7 13.9 14.8 7 8.2 13.6 15.9 14.7 17.2 1.2 1.3 2.1 2.6 2.1 2.8 0 .2-4.3 6.8-9.6 14.7l-9.5 14.3-15.7 3.8c-8.6 2.1-16.2 4-16.8 4.2-.9.3-19.9-24-24.3-31.2-1.1-1.8-.2-4.6 6.4-21.2 5-12.6 8.2-19.3 9.3-19.5 1.3-.3 25.6-.2 29.5.1zm26.7 84.4c19.1 12.7 17.7 10.4 12.3 20.6-2.5 4.7-4.7 8.8-4.8 9-2.3 2.3-30.6 3.5-40 1.6-9.5-1.9-28.9-9.5-31.9-12.5-.6-.6 1.4-4.4 5-9.9l5.9-9 12-3.1c6.6-1.7 15.2-3.9 19-4.9 3.9-1 7.5-1.6 8-1.3.6.3 7.1 4.6 14.5 9.5zm64-9.3c0 1.4-7.5 10.3-13.2 15.7-7.5 7-25.2 18.3-28.8 18.3-.6 0 .5-3 2.3-6.7 3.4-6.6 3.6-6.8 19.3-17.3 14-9.4 20.4-12.5 20.4-10z"/></svg>